# xmcd CD database file
#
# Track frame offsets:
#	182
#	21750
#	45067
#	68162
#	92107
#	108592
#	140020
#	156782
#	174285
#
# Disc length: 2661 seconds
#
# Revision: 0
# Processed by: cddbd v1.5.1PL0 Copyright (c) Steve Scherf et al.
# Submitted via: CDex 1.51
#
DISCID=6b0a6309
DTITLE=Farias De Crescenzo Guarino - Jazz Mediterranée
DYEAR=1991
DGENRE=Jazz
TTITLE0=Solaria
TTITLE1=Risveglio
TTITLE2=Gorilla
TTITLE3=Pulcinella
TTITLE4=Dissonanze
TTITLE5=Chinatown
TTITLE6=Mediterraneo
TTITLE7=Song for Bob
TTITLE8=Lively Blues
EXTD=YEAR: 1991
EXTT0=
EXTT1=
EXTT2=
EXTT3=
EXTT4=
EXTT5=
EXTT6=
EXTT7=
EXTT8=
PLAYORDER=
